# xmcd
#
# Track frame offsets:
#	150
#	22264
#	39651
#	55431
#	73075
#	98917
#	118477
#	146796
#	155902
#	172325
#	201601
#	237468
#	255178
#
# Disc length: 3604 seconds
#
# Revision: 1
# Processed by: cddbd v1.5.2PL0 Copyright (c) Steve Scherf et al.
# Submitted via: audiograbber 1.83.01
#
DISCID=d80e120d
DTITLE=Chico Amaral - Singular
DYEAR=1900
DGENRE=Instrumental
TTITLE0=Singular
TTITLE1=Sambage à trois
TTITLE2=Sobe o verão
TTITLE3=Tempo de samba
TTITLE4=Maio
TTITLE5=Duas Marias
TTITLE6=Panamericana
TTITLE7=Tateando
TTITLE8=Boca
TTITLE9=Borboleta
TTITLE10=Baqlancim
TTITLE11=Lobo
TTITLE12=Bodas
EXTD=
EXTT0=
EXTT1=
EXTT2=
EXTT3=
EXTT4=
EXTT5=
EXTT6=
EXTT7=
EXTT8=
EXTT9=
EXTT10=
EXTT11=
EXTT12=
PLAYORDER=
